<?xml version="1.0" encoding="utf-8"?>
<!-- Generator: Adobe Illustrator 26.2.1, SVG Export Plug-In . SVG Version: 6.00 Build 0)  -->
<svg version="1.1" id="Layer_1" xmlns="http://www.w3.org/2000/svg" xmlns:xlink="http://www.w3.org/1999/xlink" x="0px" y="0px"
	 viewBox="0 0 960 560" style="enable-background:new 0 0 960 560;" xml:space="preserve">
<style type="text/css">
	.st0{stroke:#000000;stroke-width:7.2218;stroke-linecap:round;stroke-linejoin:round;stroke-miterlimit:10;}
	.st1{fill:none;stroke:#000000;stroke-width:6.1863;stroke-linecap:round;stroke-linejoin:round;stroke-miterlimit:10;}
	.st2{fill:#FFFFFF;}
	.st3{fill:none;stroke:#000000;stroke-width:6.5934;stroke-linecap:round;stroke-linejoin:round;stroke-miterlimit:10;}
	.st4{fill:none;stroke:#000000;stroke-width:6.3878;stroke-linecap:round;stroke-linejoin:round;stroke-miterlimit:10;}
	.st5{fill:none;stroke:#000000;stroke-width:5.3745;stroke-linecap:round;stroke-linejoin:round;stroke-miterlimit:10;}
	.st6{stroke:#000000;stroke-width:8.3115;stroke-linecap:round;stroke-linejoin:round;stroke-miterlimit:10;}
	.st7{fill:none;stroke:#000000;stroke-width:6.5718;stroke-linecap:round;stroke-linejoin:round;stroke-miterlimit:10;}
</style>
<polygon class="st0" points="201,351.3 308.2,361.9 722.5,361.9 722.5,347.8 315.1,347.8 315.1,339.8 201,339.8 "/>
<g>
	<path d="M480.6,349.2c6.5,0,12.4,2.9,17.4,7.5c4.4,4.1,8.5,9.4,10.9,16c2.1,5.8,3,12.4,3,19.3c0,6.9-0.9,13.5-3.1,19.3
		c-2.4,6.6-6.2,12.2-10.7,16.3c-5,4.7-11.2,7.3-17.7,7.3c-11.5,0-11.5,0-22.9,0"/>
	<path class="st1" d="M480.6,349.2c6.5,0,12.4,2.9,17.4,7.5c4.4,4.1,8.5,9.4,10.9,16c2.1,5.8,3,12.4,3,19.3c0,6.9-0.9,13.5-3.1,19.3
		c-2.4,6.6-6.2,12.2-10.7,16.3c-5,4.7-11.2,7.3-17.7,7.3c-11.5,0-11.5,0-22.9,0"/>
</g>
<g>
	<path class="st2" d="M489.7,392.1c0,6.9-1.6,13.5-3.8,19.3c-2.4,6.6-6,12.4-10.5,16.5c-5,4.7-11.3,6.6-17.9,6.6
		c-6.5,0-13-1.8-18-6.4c-4.4-4.1-7.7-10.1-10.1-16.7c-2.1-5.8-3.8-12.3-3.8-19.2c0-6.9,1.1-13.6,3.2-19.4
		c2.4-6.6,6.5-12.1,10.9-16.2c5-4.7,11.2-6.7,17.8-6.7c6.5,0,12.9,1.9,17.9,6.6c4.4,4.1,7.6,10.1,10.1,16.7
		C487.7,378.7,489.7,385.2,489.7,392.1z"/>
	<path class="st1" d="M489.7,392.1c0,6.9-1.6,13.5-3.8,19.3c-2.4,6.6-6,12.4-10.5,16.5c-5,4.7-11.3,6.6-17.9,6.6
		c-6.5,0-13-1.8-18-6.4c-4.4-4.1-7.7-10.1-10.1-16.7c-2.1-5.8-3.8-12.3-3.8-19.2c0-6.9,1.1-13.6,3.2-19.4
		c2.4-6.6,6.5-12.1,10.9-16.2c5-4.7,11.2-6.7,17.8-6.7c6.5,0,12.9,1.9,17.9,6.6c4.4,4.1,7.6,10.1,10.1,16.7
		C487.7,378.7,489.7,385.2,489.7,392.1z"/>
</g>
<g>
	<path class="st3" d="M315.3,125.6l-0.7,24.5l0.5,24.7l-0.2,24.7l0.5,24.7l0.1,24.7l0,24.7l0.3,24.7l-0.1,24.7l-0.5,24.7l23-0.4
		l23.1,1.1l23.1-1.1l23.1,0.8l23.1-0.4l23.1,0.4l23.1,0l23.1,0.2l23.1-0.3l23.1,0l23.1-0.7l22.8-0.1l12-19.6l13-19.3l12.2-19.9
		l-0.8-23.4l0.2-23.3l0.4-23.3l0.2-23.3l-0.9-23.3l0.7-23.3l-0.2-23.3l-24.1,0l-24.1-0.2l-24.1-0.2l-24.1,1l-24.1-0.4l-24.1-0.5
		l-24.1,0.9l-24.1-0.6l-24.1,0.6l-24.1-0.7l-24.1,0.6l-24.1-0.2L315.3,125.6z"/>
</g>
<g>
	<path class="st3" d="M445.7,347.2l23.1,0.8l23.1,0.1l23.1-0.8l23.1,0.1l23.1-0.1l23.1,0l23.1,0.8l23.1,0l23.1,0l23.1-0.8l23.1,0.1
		l22.8-0.1l12-19.6l12.4-19.7l12.7-19.6l-0.5-23.5l0.7-23.4l-0.1-23.4l0.1-23.4l-0.1-23.4l0.1-23.4l-1-23l-21.3-0.9l-21.8,0.8
		l-21.8-0.1l-21.8,0.3l-21.8,0l-21.8-0.4"/>
</g>
<g>
	<polyline class="st3" points="584.5,347 567.1,330.8 549,315.3 531.4,299.2 513,284.1 495.3,268.1 477.2,252.5 459.9,236.1 
		441.8,220.7 423.8,205 405.7,189.5 387.6,174 370.1,157.9 351.9,142.4 334.5,126.1 	"/>
</g>
<g>
	<polyline class="st3" points="565.9,347.8 548.2,331.7 530.3,315.8 512.4,299.9 494.2,284.3 475.8,269 458.2,252.7 440.9,236.2 
		422.5,220.9 405,204.5 386.6,189.1 368.4,173.5 351,157 333.3,140.9 315.2,125.3 	"/>
</g>
<g>
	<polyline class="st3" points="545,348.2 528.1,331.7 509.5,317 492.4,300.7 474.4,285.4 457.1,269.3 438.8,254.4 421.5,238.2 
		404,222.3 386.2,206.9 368.4,191.3 350.7,175.7 332.5,160.6 315,144.7 	"/>
</g>
<g>
	<polyline class="st3" points="524.1,346.1 506.7,330.8 488.7,316.1 472.1,299.9 454.4,284.8 437.2,269.2 419.7,254 402,239 
		384.2,224 367,208.5 350.3,192.3 332.4,177.6 314.8,162.3 	"/>
</g>
<g>
	<polyline class="st3" points="505.6,347.4 488.1,332.3 470.3,317.7 453.7,301.7 436.4,286.4 419.1,271.2 401.3,256.6 384.1,241.2 
		366.8,225.9 350,210.2 332.1,195.6 315.4,179.7 	"/>
</g>
<g>
	<polyline class="st3" points="483.3,346.8 465.4,329.9 447,313.3 427.9,297.7 409.8,281 391.5,264.4 372.2,248.9 353.7,232.5 
		335.5,215.9 316.6,199.9 	"/>
</g>
<g>
	<polyline class="st3" points="462.3,346.1 443.7,330.2 425,314.3 406.6,298.2 388.9,281.3 370.3,265.3 352.1,248.9 333.4,233.1 
		314.9,217 	"/>
</g>
<g>
	<polyline class="st3" points="440.7,346 422,331.1 404.2,315.3 386.6,299.1 368.8,283.2 350.7,267.8 333.1,251.6 315.5,235.6 	"/>
</g>
<g>
	<polyline class="st3" points="418.6,346.5 401.3,331.3 383.8,316.3 366.7,301 349.2,286.1 332.3,270.3 315.4,254.8 	"/>
</g>
<g>
	<polyline class="st3" points="397,346.3 380.9,331.6 364.2,317.5 347.9,303 331.4,288.8 314.9,274.4 	"/>
</g>
<g>
	<polyline class="st3" points="378,347.2 357.4,329.8 337.2,311.9 316.6,294.4 	"/>
</g>
<g>
	<polyline class="st3" points="355.7,347.6 335.6,329.7 315.1,312.4 	"/>
</g>
<g>
	<line class="st3" x1="336.2" y1="347.4" x2="315.8" y2="328.9"/>
</g>
<g>
	<polyline class="st3" points="628.4,279.3 611.3,263.6 593.3,248.9 576.6,232.7 559.2,217.2 541,202.7 524.1,186.7 506.1,172 
		489.3,155.9 471.4,141 454.2,125.4 	"/>
</g>
<g>
	<polyline class="st3" points="628.2,261.8 611.6,246.3 594.9,230.9 577.2,216.7 560.2,201.7 543.7,186 526.3,171.4 509.8,155.8 
		492.8,140.8 475.6,125.9 	"/>
</g>
<g>
	<polyline class="st3" points="628.8,243.3 612.2,228.3 595.4,213.6 577.9,199.7 561.6,184.4 544.6,169.9 527.7,155.4 511.4,140.1 
		494.9,125.1 	"/>
</g>
<g>
	<polyline class="st3" points="628.1,226.2 610.1,208.8 590.7,192.9 572.1,176.1 553.7,159 534.8,142.5 515.5,126.5 	"/>
</g>
<g>
	<polyline class="st3" points="628.3,208.1 609.7,192 591.1,175.7 573.4,158.4 554.9,142.1 536.1,126 	"/>
</g>
<line class="st3" x1="628.6" y1="190.1" x2="556.2" y2="126.2"/>
<line class="st3" x1="628.6" y1="172.2" x2="576.4" y2="126.2"/>
<line class="st3" x1="628.6" y1="154.4" x2="596.6" y2="126.2"/>
<line class="st3" x1="629.1" y1="140.3" x2="612.6" y2="125.7"/>
<g>
	<polyline class="st3" points="659.5,288.3 676.1,274 692.7,259.6 709.1,245 725.7,230.7 742.7,216.7 759.5,202.6 	"/>
</g>
<g>
	<polyline class="st3" points="682,287.9 701.9,271 720.5,252.7 739.8,235.1 759.6,218.1 	"/>
</g>
<g>
	<polyline class="st3" points="702.2,286.1 721.3,269.8 739.5,252.5 758.7,236.3 	"/>
</g>
<g>
	<polyline class="st3" points="723.1,287.9 740.2,271.1 757.5,254.5 	"/>
</g>
<g>
	<line class="st3" x1="739.4" y1="288.3" x2="758.9" y2="270.4"/>
</g>
<g>
	<polyline class="st3" points="639.7,287.6 657,272.7 673.6,257.1 691,242.3 707.9,227.1 724.9,211.9 742.5,197.4 759.7,182.5 	"/>
</g>
<g>
	<polyline class="st3" points="629.9,277.8 648.1,261.6 666.4,245.4 684.9,229.3 703.8,213.9 722.1,197.6 739.8,180.8 758.1,164.5 	
		"/>
</g>
<g>
	<polyline class="st3" points="629.9,260 648.4,243.8 667,227.7 685.4,211.4 704,195.2 722.1,178.6 740.5,162.2 759.4,146.5 	"/>
</g>
<g>
	<polyline class="st3" points="630.4,242.8 648.4,226 667.2,210.2 685.6,193.9 703.5,177 722.3,161.1 740.9,145.1 759.1,128.6 	"/>
</g>
<g>
	<polyline class="st3" points="630.6,225.1 649,208.2 668,191.8 686.7,175.1 705.8,158.8 724.1,141.7 743,125.2 	"/>
</g>
<g>
	<polyline class="st3" points="630,206.7 648.5,190.3 667.1,174.1 685.7,157.9 704.6,141.9 722.4,124.8 	"/>
</g>
<line class="st3" x1="630.2" y1="189" x2="702.6" y2="125.2"/>
<line class="st3" x1="630.2" y1="171.2" x2="682.3" y2="125.2"/>
<line class="st3" x1="630.2" y1="153.4" x2="662.1" y2="125.2"/>
<line class="st3" x1="629.6" y1="139.3" x2="646.2" y2="124.7"/>
<g>
	<polygon class="st2" points="747.7,231.5 721.6,231.3 695.5,231.6 669.4,231.6 643.4,231.4 643.9,209.3 643.1,187 669.4,187.2 
		695.5,187.1 721.6,186.9 747.4,187.6 747.5,209.3 	"/>
	<polygon class="st3" points="747.7,231.5 721.6,231.3 695.5,231.6 669.4,231.6 643.4,231.4 643.9,209.3 643.1,187 669.4,187.2 
		695.5,187.1 721.6,186.9 747.4,187.6 747.5,209.3 	"/>
</g>
<g>
	<path d="M448.9,392.1c0-6,4.1-10.2,8.7-10.2c4.7,0,8.6,4.3,8.6,10.2s-3.9,11.1-8.6,11.1C453,403.2,448.9,398,448.9,392.1z"/>
	<path class="st4" d="M448.9,392.1c0-6,4.1-10.2,8.7-10.2c4.7,0,8.6,4.3,8.6,10.2s-3.9,11.1-8.6,11.1
		C453,403.2,448.9,398,448.9,392.1z"/>
</g>
<g>
	<path d="M590.7,353.9c5.7,0,11.2,2.5,15.6,6.5c3.9,3.6,6.3,8.9,8.4,14.6c1.8,5,3.5,10.5,3.5,16.5c0,6-1.5,11.5-3.3,16.6
		c-2.1,5.7-4.7,11-8.6,14.5c-4.4,4-9.9,6.5-15.5,6.5c-10,0-10-0.5-19.9-0.5"/>
	<path class="st5" d="M590.7,353.9c5.7,0,11.2,2.5,15.6,6.5c3.9,3.6,6.3,8.9,8.4,14.6c1.8,5,3.5,10.5,3.5,16.5
		c0,6-1.5,11.5-3.3,16.6c-2.1,5.7-4.7,11-8.6,14.5c-4.4,4-9.9,6.5-15.5,6.5c-10,0-10-0.5-19.9-0.5"/>
</g>
<g>
	<path d="M598.6,391.6c0,6-1.9,11.5-3.7,16.6c-2.1,5.7-5,10.6-8.9,14.2c-4.4,4-9.5,6.2-15.2,6.2c-5.7,0-11.2-1.8-15.5-5.9
		c-3.9-3.6-6.8-8.7-8.9-14.4c-1.8-5-2.7-10.7-2.7-16.7c0-6,1.3-11.5,3.1-16.5c2.1-5.7,4.9-10.7,8.8-14.3c4.4-4,9.6-6,15.3-6
		c5.7,0,11.2,1.7,15.6,5.7c3.9,3.6,7,8.7,9.1,14.4C597.3,379.8,598.6,385.6,598.6,391.6z"/>
	<path class="st5" d="M598.6,391.6c0,6-1.9,11.5-3.7,16.6c-2.1,5.7-5,10.6-8.9,14.2c-4.4,4-9.5,6.2-15.2,6.2
		c-5.7,0-11.2-1.8-15.5-5.9c-3.9-3.6-6.8-8.7-8.9-14.4c-1.8-5-2.7-10.7-2.7-16.7c0-6,1.3-11.5,3.1-16.5c2.1-5.7,4.9-10.7,8.8-14.3
		c4.4-4,9.6-6,15.3-6c5.7,0,11.2,1.7,15.6,5.7c3.9,3.6,7,8.7,9.1,14.4C597.3,379.8,598.6,385.6,598.6,391.6z"/>
</g>
<line class="st3" x1="628.6" y1="288.3" x2="759.2" y2="288.3"/>
<line class="st3" x1="596.9" y1="343.5" x2="723.8" y2="344.6"/>
<rect x="497.6" y="359.4" class="st6" width="74.6" height="36.8"/>
<g>
	<g>
		<polyline class="st3" points="665.4,348.7 647.4,333 630,316.5 611.7,301.1 593.5,285.5 576.3,269 558.5,253 540.3,237.4 
			521.9,222.1 503.9,206.4 486.5,189.9 468,174.7 450.4,158.6 432.5,142.7 414.2,127.2 		"/>
	</g>
	<g>
		<polyline class="st3" points="643.3,345.8 625.1,330.7 607.5,314.9 589.4,299.6 571.9,283.6 554.4,267.7 536.7,252 519,236.3 
			501,220.8 482.8,205.6 465.1,189.9 447.4,174.3 430.3,157.8 412.2,142.5 394.6,126.7 		"/>
	</g>
	<g>
		<polyline class="st3" points="624.9,347.1 606.3,332 589.1,315.5 570.8,300 552.4,284.7 534.9,268.5 516.8,252.7 498.8,237 
			481.4,220.6 463.5,204.8 445.5,188.9 427.7,173 409.2,157.7 391.2,142 373.3,126.1 		"/>
	</g>
	<g>
		<polyline class="st3" points="604.5,348.3 587,332 569.1,316 550.6,300.8 532.8,284.8 514.7,269.1 496.7,253.3 479.5,236.5 
			461.3,220.9 442.8,205.7 425.3,189.4 407.3,173.5 389.7,157.2 371.3,141.8 353.5,125.8 		"/>
	</g>
	<g>
		<polyline class="st3" points="685.6,348.7 668.3,332.1 650.3,316.4 632.5,300.5 614.1,285.2 596.6,268.8 578.3,253.4 560.1,237.9 
			542.3,221.9 524.3,206.2 506.4,190.3 488.3,174.7 470.3,158.9 452.7,142.6 434.7,126.9 		"/>
	</g>
	<g>
		<polyline class="st3" points="704.3,347.2 688.4,332.7 672.6,318.1 656.6,303.7 640.7,289.2 		"/>
	</g>
	<g>
		<polyline class="st3" points="720.7,344.5 701.1,326.3 681.3,308.5 661.8,290.2 		"/>
	</g>
	<g>
		<polyline class="st3" points="730.5,334.5 714.3,319.5 697.8,304.8 681.8,289.6 		"/>
	</g>
	<g>
		<polyline class="st3" points="743.1,312.1 729.2,300.6 714.9,289.7 		"/>
	</g>
	<g>
		<polyline class="st3" points="736.3,322.8 718,306 699.5,289.4 		"/>
	</g>
	<g>
		<line class="st3" x1="751" y1="301.9" x2="736.2" y2="289.3"/>
	</g>
</g>
<g>
	<polygon class="st2" points="489.2,275 468.3,275.6 447.3,274.9 426.2,275.5 405.1,274.8 384.1,275.5 363.3,275 363.4,252.2 
		363,229.2 363.5,206.2 362.5,183.1 363.2,160.3 384.1,159.7 405.1,159.8 426.2,160.1 447.3,159.7 468.3,160 489,160.5 488.9,183.1 
		490,206.2 489.9,229.2 488.9,252.2 	"/>
	<polygon class="st7" points="489.2,275 468.3,275.6 447.3,274.9 426.2,275.5 405.1,274.8 384.1,275.5 363.3,275 363.4,252.2 
		363,229.2 363.5,206.2 362.5,183.1 363.2,160.3 384.1,159.7 405.1,159.8 426.2,160.1 447.3,159.7 468.3,160 489,160.5 488.9,183.1 
		490,206.2 489.9,229.2 488.9,252.2 	"/>
</g>
</svg>
